<svg width="32" height="32" viewBox="0 0 32 32" fill="none" xmlns="http://www.w3.org/2000/svg">
<path d="M27.75 16.0001C27.75 16.199 27.6709 16.3898 27.5303 16.5304C27.3896 16.6711 27.1989 16.7501 27 16.7501H6.8112L14.53 24.4701C14.6036 24.5388 14.6627 24.6216 14.7037 24.7136C14.7447 24.8056 14.7668 24.9049 14.7685 25.0056C14.7703 25.1063 14.7518 25.2063 14.7141 25.2997C14.6764 25.3931 14.6202 25.4779 14.549 25.5491C14.4778 25.6203 14.3929 25.6765 14.2995 25.7142C14.2062 25.7519 14.1061 25.7705 14.0054 25.7687C13.9047 25.7669 13.8054 25.7449 13.7134 25.7039C13.6214 25.6629 13.5386 25.6038 13.47 25.5301L4.46995 16.5301C4.3295 16.3895 4.25061 16.1988 4.25061 16.0001C4.25061 15.8013 4.3295 15.6107 4.46995 15.4701L13.47 6.47009C13.6121 6.33761 13.8002 6.26549 13.9945 6.26892C14.1888 6.27234 14.3742 6.35106 14.5116 6.48847C14.649 6.62588 14.7277 6.81127 14.7311 7.00557C14.7346 7.19987 14.6624 7.38792 14.53 7.53009L6.8112 15.2501H27C27.1989 15.2501 27.3896 15.3291 27.5303 15.4698C27.6709 15.6104 27.75 15.8012 27.75 16.0001Z" fill="#343330"/>
</svg>
