<svg width="25" height="24" viewBox="0 0 25 24" fill="none" xmlns="http://www.w3.org/2000/svg">
<path d="M21.2806 12.5306L14.5306 19.2806C14.3899 19.4213 14.199 19.5003 14 19.5003C13.801 19.5003 13.6101 19.4213 13.4694 19.2806C13.3286 19.1398 13.2496 18.949 13.2496 18.7499C13.2496 18.5509 13.3286 18.36 13.4694 18.2193L18.9397 12.7499H4.25C4.05109 12.7499 3.86032 12.6709 3.71967 12.5303C3.57902 12.3896 3.5 12.1988 3.5 11.9999C3.5 11.801 3.57902 11.6103 3.71967 11.4696C3.86032 11.3289 4.05109 11.2499 4.25 11.2499H18.9397L13.4694 5.78055C13.3286 5.63982 13.2496 5.44895 13.2496 5.24993C13.2496 5.05091 13.3286 4.86003 13.4694 4.7193C13.6101 4.57857 13.801 4.49951 14 4.49951C14.199 4.49951 14.3899 4.57857 14.5306 4.7193L21.2806 11.4693C21.3504 11.539 21.4057 11.6217 21.4434 11.7127C21.4812 11.8038 21.5006 11.9014 21.5006 11.9999C21.5006 12.0985 21.4812 12.1961 21.4434 12.2871C21.4057 12.3782 21.3504 12.4609 21.2806 12.5306Z" fill="white"/>
</svg>
