<svg width="40" height="40" viewBox="0 0 40 40" fill="none" xmlns="http://www.w3.org/2000/svg">
<rect x="0.5" y="0.5" width="39" height="39" rx="19.5" stroke="black" stroke-opacity="0.3"/>
<path d="M25.9563 25.2938C26.0023 25.3367 26.0393 25.3884 26.0649 25.4459C26.0905 25.5034 26.1043 25.5655 26.1054 25.6285C26.1065 25.6914 26.0949 25.7539 26.0714 25.8123C26.0478 25.8706 26.0127 25.9237 25.9682 25.9682C25.9237 26.0127 25.8706 26.0478 25.8123 26.0714C25.7539 26.0949 25.6914 26.1065 25.6285 26.1054C25.5655 26.1043 25.5034 26.0905 25.4459 26.0649C25.3884 26.0393 25.3367 26.0023 25.2938 25.9563L20 20.6633L14.7063 25.9563C14.6174 26.0391 14.4999 26.0842 14.3784 26.082C14.257 26.0799 14.1411 26.0307 14.0553 25.9448C13.9694 25.8589 13.9202 25.743 13.918 25.6216C13.9159 25.5002 13.961 25.3826 14.0438 25.2938L19.3367 20L14.0438 14.7063C13.961 14.6174 13.9159 14.4999 13.918 14.3784C13.9202 14.257 13.9694 14.1411 14.0553 14.0553C14.1411 13.9694 14.257 13.9202 14.3784 13.918C14.4999 13.9159 14.6174 13.961 14.7063 14.0438L20 19.3367L25.2938 14.0438C25.3826 13.961 25.5002 13.9159 25.6216 13.918C25.743 13.9202 25.8589 13.9694 25.9448 14.0553C26.0307 14.1411 26.0799 14.257 26.082 14.3784C26.0842 14.4999 26.0391 14.6174 25.9563 14.7063L20.6633 20L25.9563 25.2938Z" fill="black"/>
</svg>
