<svg width="9" height="6" viewBox="0 0 9 6" fill="none" xmlns="http://www.w3.org/2000/svg">
<path fill-rule="evenodd" clip-rule="evenodd" d="M8.78583 1.51253C9.06889 1.21013 9.05321 0.735513 8.75081 0.452451C8.4484 0.169388 7.97379 0.185068 7.69073 0.487472L4.49419 3.90243L1.29766 0.487472C1.01459 0.185068 0.539978 0.169388 0.237574 0.452451C-0.0648308 0.735513 -0.0805102 1.21013 0.202553 1.51253L3.93651 5.50164C3.95075 5.51743 3.96578 5.53276 3.98159 5.54755C4.12631 5.68301 4.31046 5.75006 4.49419 5.75C4.67792 5.75006 4.86207 5.68302 5.00679 5.54755C5.02261 5.53275 5.03765 5.51741 5.0519 5.50161L8.78583 1.51253Z" fill="#171725"/>
</svg>
