<svg width="25" height="25" viewBox="0 0 25 25" fill="none" xmlns="http://www.w3.org/2000/svg">
<path d="M21.9299 4.52954L3.92993 4.52954C3.73102 4.52954 3.54025 4.60856 3.3996 4.74921C3.25895 4.88986 3.17993 5.08063 3.17993 5.27954L3.17993 18.0295C3.17993 18.4274 3.33797 18.8089 3.61927 19.0902C3.90058 19.3715 4.28211 19.5295 4.67993 19.5295L21.1799 19.5295C21.5778 19.5295 21.9593 19.3715 22.2406 19.0902C22.5219 18.8089 22.6799 18.4274 22.6799 18.0295L22.6799 5.27954C22.6799 5.08063 22.6009 4.88986 22.4603 4.74921C22.3196 4.60856 22.1288 4.52954 21.9299 4.52954ZM20.0015 6.02954L12.9299 12.5124L5.85837 6.02954L20.0015 6.02954ZM21.1799 18.0295L4.67993 18.0295L4.67993 6.98485L12.4227 14.0827C12.5611 14.2097 12.7421 14.2802 12.9299 14.2802C13.1178 14.2802 13.2988 14.2097 13.4371 14.0827L21.1799 6.98485L21.1799 18.0295Z" fill="black"/>
</svg>
