<svg width="24" height="24" viewBox="0 0 24 24" fill="none" xmlns="http://www.w3.org/2000/svg">
<path d="M13.032 14.8355C14.2507 14.1872 15.2176 13.1499 15.7788 11.8886C16.3401 10.6274 16.4634 9.21478 16.1293 7.87539C15.7952 6.536 15.0227 5.3468 13.9349 4.49699C12.847 3.64717 11.5062 3.18555 10.1258 3.18555C8.74536 3.18555 7.40456 3.64717 6.3167 4.49699C5.22885 5.3468 4.45641 6.536 4.12228 7.87539C3.78815 9.21478 3.91152 10.6274 4.47275 11.8886C5.03399 13.1499 6.00086 14.1872 7.21955 14.8355C5.15705 15.4196 3.2933 16.6318 1.81861 18.3877C1.72787 18.5024 1.68537 18.648 1.70014 18.7935C1.71491 18.939 1.78579 19.0731 1.89773 19.1672C2.00967 19.2614 2.15389 19.3082 2.29978 19.2978C2.44568 19.2874 2.58178 19.2206 2.67924 19.1115C4.60392 16.8221 7.24861 15.5621 10.1258 15.5621C13.003 15.5621 15.6477 16.8221 17.5705 19.1115C17.6172 19.1705 17.6753 19.2196 17.7413 19.2558C17.8073 19.292 17.8799 19.3145 17.9548 19.3221C18.0297 19.3297 18.1054 19.3222 18.1774 19.3C18.2493 19.2779 18.3161 19.2415 18.3737 19.193C18.4313 19.1446 18.4786 19.085 18.5128 19.0179C18.547 18.9509 18.5674 18.8776 18.5727 18.8025C18.5781 18.7274 18.5683 18.652 18.544 18.5808C18.5196 18.5095 18.4813 18.4439 18.4311 18.3877C16.9564 16.6318 15.0945 15.4196 13.032 14.8355ZM5.0633 9.37461C5.0633 8.37334 5.36021 7.39456 5.91648 6.56203C6.47276 5.72951 7.26341 5.08063 8.18846 4.69747C9.11351 4.3143 10.1314 4.21404 11.1134 4.40938C12.0955 4.60472 12.9975 5.08687 13.7055 5.79488C14.4135 6.50288 14.8957 7.40493 15.091 8.38696C15.2864 9.36899 15.1861 10.3869 14.8029 11.3119C14.4198 12.237 13.7709 13.0276 12.9384 13.5839C12.1058 14.1402 11.1271 14.4371 10.1258 14.4371C8.7836 14.4356 7.49679 13.9018 6.54771 12.9527C5.59863 12.0036 5.06479 10.7168 5.0633 9.37461ZM22.8055 13.5746L22.2505 13.2549C22.3343 12.9233 22.3343 12.576 22.2505 12.2443L22.8055 11.9246C22.8695 11.8877 22.9256 11.8385 22.9706 11.7799C23.0156 11.7212 23.0487 11.6543 23.0678 11.5829C23.087 11.5116 23.0919 11.4371 23.0823 11.3638C23.0726 11.2905 23.0487 11.2199 23.0117 11.1559C22.9748 11.0918 22.9256 11.0357 22.867 10.9907C22.8084 10.9457 22.7415 10.9127 22.6701 10.8935C22.5987 10.8744 22.5242 10.8695 22.451 10.8791C22.3777 10.8887 22.307 10.9127 22.243 10.9496L21.687 11.2712C21.4421 11.033 21.1419 10.8593 20.8133 10.7659V10.1246C20.8133 9.97542 20.754 9.83235 20.6485 9.72686C20.5431 9.62137 20.4 9.56211 20.2508 9.56211C20.1016 9.56211 19.9585 9.62137 19.853 9.72686C19.7476 9.83235 19.6883 9.97542 19.6883 10.1246V10.7659C19.3597 10.8593 19.0595 11.033 18.8145 11.2712L18.2586 10.9496C18.1293 10.875 17.9757 10.8548 17.8315 10.8935C17.6873 10.9322 17.5645 11.0266 17.4899 11.1559C17.4153 11.2851 17.3951 11.4388 17.4338 11.5829C17.4724 11.7271 17.5668 11.85 17.6961 11.9246L18.2511 12.2443C18.1673 12.576 18.1673 12.9233 18.2511 13.2549L17.6961 13.5746C17.5668 13.6492 17.4724 13.7721 17.4338 13.9163C17.3951 14.0604 17.4153 14.2141 17.4899 14.3434C17.5645 14.4726 17.6873 14.567 17.8315 14.6057C17.9757 14.6444 18.1293 14.6242 18.2586 14.5496L18.8145 14.228C19.0595 14.4662 19.3597 14.6399 19.6883 14.7334V15.3746C19.6883 15.5238 19.7476 15.6669 19.853 15.7724C19.9585 15.8778 20.1016 15.9371 20.2508 15.9371C20.4 15.9371 20.5431 15.8778 20.6485 15.7724C20.754 15.6669 20.8133 15.5238 20.8133 15.3746V14.7334C21.1419 14.6399 21.4421 14.4662 21.687 14.228L22.243 14.5496C22.307 14.5865 22.3777 14.6105 22.451 14.6201C22.5242 14.6298 22.5987 14.6248 22.6701 14.6057C22.7415 14.5865 22.8084 14.5535 22.867 14.5085C22.9256 14.4635 22.9748 14.4074 23.0117 14.3434C23.0487 14.2793 23.0726 14.2087 23.0823 14.1354C23.0919 14.0621 23.087 13.9877 23.0678 13.9163C23.0487 13.8449 23.0156 13.778 22.9706 13.7193C22.9256 13.6607 22.8695 13.6115 22.8055 13.5746ZM20.2508 13.6871C20.0654 13.6871 19.8841 13.6321 19.7299 13.5291C19.5758 13.4261 19.4556 13.2797 19.3847 13.1084C19.3137 12.9371 19.2951 12.7486 19.3313 12.5667C19.3675 12.3849 19.4568 12.2178 19.5879 12.0867C19.719 11.9556 19.886 11.8663 20.0679 11.8301C20.2498 11.7939 20.4383 11.8125 20.6096 11.8835C20.7809 11.9544 20.9273 12.0746 21.0303 12.2288C21.1333 12.3829 21.1883 12.5642 21.1883 12.7496C21.1883 12.9982 21.0895 13.2367 20.9137 13.4125C20.7379 13.5883 20.4994 13.6871 20.2508 13.6871Z" fill="black"/>
</svg>
