<svg width="40" height="41" viewBox="0 0 40 41" fill="none" xmlns="http://www.w3.org/2000/svg">
<rect y="0.5" width="40" height="40" rx="20" fill="#EEEEEE"/>
<path d="M28.0407 27.0627C26.8508 25.0056 25.0172 23.5306 22.8774 22.8314C23.9358 22.2013 24.7582 21.2412 25.2182 20.0984C25.6781 18.9557 25.7503 17.6936 25.4235 16.5059C25.0968 15.3182 24.3892 14.2706 23.4094 13.524C22.4296 12.7774 21.2318 12.373 20 12.373C18.7682 12.373 17.5704 12.7774 16.5907 13.524C15.6109 14.2706 14.9033 15.3182 14.5765 16.5059C14.2498 17.6936 14.3219 18.9557 14.7819 20.0984C15.2419 21.2412 16.0642 22.2013 17.1227 22.8314C14.9828 23.5299 13.1492 25.0049 11.9594 27.0627C11.9158 27.1338 11.8868 27.213 11.8743 27.2955C11.8617 27.378 11.8659 27.4622 11.8864 27.5431C11.9069 27.624 11.9434 27.7 11.9938 27.7665C12.0441 27.8331 12.1073 27.8889 12.1796 27.9306C12.2519 27.9724 12.3318 27.9992 12.4146 28.0096C12.4974 28.0199 12.5814 28.0136 12.6618 27.991C12.7421 27.9683 12.8171 27.9298 12.8823 27.8777C12.9475 27.8256 13.0016 27.761 13.0414 27.6877C14.5133 25.1439 17.1149 23.6252 20 23.6252C22.8852 23.6252 25.4867 25.1439 26.9586 27.6877C26.9985 27.761 27.0526 27.8256 27.1178 27.8777C27.183 27.9298 27.258 27.9683 27.3383 27.991C27.4186 28.0136 27.5027 28.0199 27.5855 28.0096C27.6683 27.9992 27.7482 27.9724 27.8205 27.9306C27.8927 27.8889 27.9559 27.8331 28.0063 27.7665C28.0566 27.7 28.0932 27.624 28.1137 27.5431C28.1342 27.4622 28.1383 27.378 28.1258 27.2955C28.1132 27.213 28.0843 27.1338 28.0407 27.0627ZM15.625 18.0002C15.625 17.1349 15.8816 16.289 16.3623 15.5696C16.8431 14.8501 17.5264 14.2893 18.3258 13.9582C19.1252 13.6271 20.0049 13.5404 20.8535 13.7092C21.7022 13.878 22.4818 14.2947 23.0936 14.9066C23.7055 15.5184 24.1222 16.298 24.291 17.1467C24.4598 17.9953 24.3731 18.875 24.042 19.6744C23.7109 20.4738 23.1501 21.1571 22.4306 21.6379C21.7112 22.1186 20.8653 22.3752 20 22.3752C18.8401 22.3739 17.728 21.9126 16.9078 21.0924C16.0876 20.2722 15.6263 19.1601 15.625 18.0002Z" fill="black"/>
</svg>
